Coordinates
version=1
nRows=31
nColumns=33
inDegrees=yes

Units are S.I. units (second, meters, Newtons, ...)
Angles are in degrees.

endheader
time	ground_thorax_rot_x	ground_thorax_rot_y	ground_thorax_rot_z	ground_thorax_tx	ground_thorax_ty	ground_thorax_tz	clav_prot_r	clav_elev_r	scapula_abduction_r	scapula_elevation_r	scapula_upward_rot_r	scapula_winging_r	shoulder_elv_r	plane_of_elev_r	axial_rot_r	elbow_flexion_r	pro_sup_r	wrist_flex_r	wrist_dev_r	clav_prot_l	clav_elev_l	scapula_abduction_l	scapula_elevation_l	scapula_upward_rot_l	scapula_winging_l	shoulder_elv_l	plane_of_elev_l	axial_rot_l	elbow_flexion_l	pro_sup_l	wrist_flex_l	wrist_dev_l	
5.1300	-90.000000	90.000000	-90.000000	-229.051053	860.720400	-7.361796	19.680325	40.381849	45.000000	45.000000	25.803899	2147.777828	-256.552103	27.543577	-131.239306	1453.774442	-316.267689	18.394665	6.671136	-45.000000	8.239539	38.123180	-17.580254	-45.000000	-2415.788307	-770.369631	141.769367	0.748912	-710.210889	27.587697	9.603384	-22.257678	
5.1400	-90.000000	90.000000	-90.000000	-229.905984	862.871750	-7.268487	19.752744	40.304971	45.000000	45.000000	25.578729	2147.842204	-256.526484	27.517781	-131.248250	1453.842387	-316.275457	18.346679	6.587048	-45.000000	7.718602	37.828498	-17.277195	-45.000000	-2415.724227	-770.229183	141.649022	0.247126	-710.072151	28.069759	9.499077	-22.309456	
5.1500	-90.000000	90.000000	-90.000000	-230.672788	864.966130	-7.174861	19.828990	40.246435	45.000000	45.000000	25.344345	2147.952728	-256.470166	27.438362	-131.253180	1453.907530	-316.276089	18.252887	6.486892	-45.000000	7.001170	37.515945	-16.918909	-45.000000	-2415.563524	-770.056158	141.487230	-0.290697	-709.919821	28.548946	9.458900	-22.394115	
5.1600	-90.000000	90.000000	-90.000000	-231.248830	866.940651	-7.080847	19.906810	40.168451	45.000000	45.000000	25.102777	2148.004811	-256.435832	27.407837	-131.266307	1453.986335	-316.253726	18.207559	6.401358	-45.000000	6.608869	37.260343	-16.668428	-45.000000	-2415.516089	-769.949295	141.378891	-0.688128	-709.807355	28.975391	9.387797	-22.444383	
5.1700	-90.000000	90.000000	-90.000000	-231.621941	868.786474	-6.985755	19.990865	40.083303	45.000000	45.000000	24.850723	2148.029078	-256.409996	27.393786	-131.278008	1454.078972	-316.209472	18.182475	6.317965	-45.000000	6.347216	37.049670	-16.465089	-45.000000	-2415.507335	-769.866951	141.298234	-1.007234	-709.726807	29.356208	9.309535	-22.475061	
5.1800	-90.000000	90.000000	-90.000000	-231.766865	870.487693	-6.889099	20.080817	39.998356	45.000000	45.000000	24.586035	2148.044036	-256.384878	27.376518	-131.292281	1454.185406	-316.142067	18.161542	6.232335	-45.000000	6.190235	36.876684	-16.302833	-45.000000	-2415.514487	-769.815457	141.232349	-1.261156	-709.666575	29.690760	9.247446	-22.499687	
5.1900	-90.000000	90.000000	-90.000000	-231.682988	872.043848	-6.791166	20.179876	39.911968	45.000000	45.000000	24.313150	2148.035511	-256.370157	27.370681	-131.305512	1454.307737	-316.049576	18.158278	6.146246	-45.000000	6.094634	36.747721	-16.167024	-45.000000	-2415.539264	-769.780036	141.191246	-1.463454	-709.625875	29.977950	9.170215	-22.505667	
5.2000	-90.000000	90.000000	-90.000000	-231.381530	873.462636	-6.692790	20.285128	39.837322	45.000000	45.000000	24.035573	2148.042988	-256.350852	27.334764	-131.335077	1454.428595	-315.930971	18.136528	6.052950	-45.000000	5.995601	36.636517	-16.042694	-45.000000	-2415.535792	-769.770782	141.144776	-1.649429	-709.579295	30.234374	9.123825	-22.522823	
5.2100	-90.000000	90.000000	-90.000000	-230.874427	874.753276	-6.595751	20.397738	39.766339	45.000000	45.000000	23.764731	2148.030236	-256.349873	27.305456	-131.383813	1454.544975	-315.776197	18.128902	5.962489	-45.000000	5.933933	36.555586	-15.942055	-45.000000	-2415.545040	-769.788999	141.117821	-1.798832	-709.529006	30.463041	9.052452	-22.527325	
5.2200	-90.000000	90.000000	-90.000000	-230.175811	875.927474	-6.501803	20.512664	39.706738	45.000000	45.000000	23.482554	2148.018766	-256.334134	27.263347	-131.459818	1454.648208	-315.577047	18.117241	5.875987	-45.000000	5.871433	36.477046	-15.851305	-45.000000	-2415.516829	-769.840789	141.080378	-1.935143	-709.466371	30.687878	9.000933	-22.546044	
5.2300	-90.000000	90.000000	-90.000000	-229.302241	876.999885	-6.412506	20.634616	39.650827	45.000000	45.000000	23.207836	2147.980990	-256.335558	27.236599	-131.566190	1454.744399	-315.318792	18.129884	5.798949	-45.000000	5.822451	36.427138	-15.772316	-45.000000	-2415.501199	-769.905582	141.061374	-2.042548	-709.389595	30.917588	8.909953	-22.553211	
5.2400	-90.000000	90.000000	-90.000000	-228.274164	877.989239	-6.328055	20.760517	39.600923	45.000000	45.000000	22.928991	2147.950210	-256.331456	27.195516	-131.711845	1454.828438	-314.991227	18.136292	5.720392	-45.000000	5.764238	36.392784	-15.696169	-45.000000	-2415.459999	-769.983097	141.030545	-2.139823	-709.290733	31.178679	8.828002	-22.576071	
5.2500	-90.000000	90.000000	-90.000000	-227.114630	878.917038	-6.248019	20.894497	39.551734	45.000000	45.000000	22.662466	2147.908765	-256.352951	27.158597	-131.889502	1454.916831	-314.579694	18.156713	5.640962	-45.000000	5.712160	36.393530	-15.629112	-45.000000	-2415.441899	-770.061672	141.019686	-2.205826	-709.176200	31.480424	8.707265	-22.590291	
5.2600	-90.000000	90.000000	-90.000000	-225.848775	879.806067	-6.171637	21.032011	39.504830	45.000000	45.000000	22.383909	2147.875288	-256.365955	27.110738	-132.089608	1455.015175	-314.076424	18.173015	5.554816	-45.000000	5.641757	36.409732	-15.560037	-45.000000	-2415.401961	-770.143538	141.002661	-2.259562	-709.055061	31.843332	8.590903	-22.615416	
5.2700	-90.000000	90.000000	-90.000000	-224.500987	880.678212	-6.098903	21.175737	39.458899	45.000000	45.000000	22.115324	2147.840059	-256.397909	27.060881	-132.307038	1455.128489	-313.473588	18.195775	5.464718	-45.000000	5.576596	36.451097	-15.495901	-45.000000	-2415.383255	-770.232169	141.009832	-2.281104	-708.930226	32.267759	8.446397	-22.633201	
5.2800	-90.000000	90.000000	-90.000000	-223.093632	881.553451	-6.030496	21.320606	39.416428	45.000000	45.000000	21.842331	2147.819813	-256.424494	26.996297	-132.535429	1455.248308	-312.768742	18.204585	5.366144	-45.000000	5.500820	36.501148	-15.432134	-45.000000	-2415.357151	-770.337271	141.024588	-2.278125	-708.810054	32.761694	8.309963	-22.657888	
5.2900	-90.000000	90.000000	-90.000000	-221.644824	882.449065	-5.968076	21.466804	39.380338	45.000000	45.000000	21.576990	2147.802956	-256.464185	26.929642	-132.767044	1455.381638	-311.957115	18.212690	5.266510	-45.000000	5.433342	36.564837	-15.373593	-45.000000	-2415.360121	-770.464249	141.074974	-2.230942	-708.701710	33.319244	8.155835	-22.672039	
5.3000	-90.000000	90.000000	-90.000000	-220.167459	883.380192	-5.913694	21.610709	39.351639	45.000000	45.000000	21.304002	2147.785652	-256.498775	26.866215	-132.993238	1455.525381	-311.035512	18.217726	5.168105	-45.000000	5.355369	36.635415	-15.310311	-45.000000	-2415.374615	-770.608296	141.154117	-2.145403	-708.613743	33.939728	7.994898	-22.677309	
5.3100	-90.000000	90.000000	-90.000000	-218.668691	884.360476	-5.869318	21.754431	39.329602	45.000000	45.000000	21.039703	2147.769272	-256.545921	26.803338	-133.221450	1455.674957	-310.008675	18.217981	5.071135	-45.000000	5.273517	36.717952	-15.238594	-45.000000	-2415.414850	-770.766773	141.267418	-2.015027	-708.534635	34.610412	7.817693	-22.670153	
5.3200	-90.000000	90.000000	-90.000000	-217.150086	885.402766	-5.836226	21.897448	39.310847	45.000000	45.000000	20.778991	2147.754532	-256.600428	26.740459	-133.454478	1455.826168	-308.891742	18.207537	4.971001	-45.000000	5.166249	36.808377	-15.148711	-45.000000	-2415.461118	-770.930307	141.397134	-1.842475	-708.456600	35.315822	7.631649	-22.656484	
5.3300	-90.000000	90.000000	-90.000000	-215.608615	886.518354	-5.814902	22.040439	39.294451	45.000000	45.000000	20.518432	2147.737874	-256.659526	26.679608	-133.693195	1455.979733	-307.708394	18.190182	4.870050	-45.000000	5.024825	36.901072	-15.030151	-45.000000	-2415.496655	-771.096338	141.532104	-1.628397	-708.376159	36.034370	7.440812	-22.639384	
5.3400	-90.000000	90.000000	-90.000000	-214.037153	887.716272	-5.804921	22.183753	39.279349	45.000000	45.000000	20.255303	2147.717469	-256.720095	26.619830	-133.942404	1456.131312	-306.485962	18.165415	4.768157	-45.000000	4.840118	36.992871	-14.878244	-45.000000	-2415.506349	-771.262205	141.662505	-1.373531	-708.293109	36.743906	7.251091	-22.621318	
5.3500	-90.000000	90.000000	-90.000000	-212.426379	889.001454	-5.804802	22.328104	39.264227	45.000000	45.000000	19.985633	2147.691859	-256.776761	26.563651	-134.205432	1456.277142	-305.254187	18.135597	4.666930	-45.000000	4.609018	37.080778	-14.685244	-45.000000	-2415.476281	-771.427914	141.781193	-1.075456	-708.204901	37.420761	7.068808	-22.606434	
5.3600	-90.000000	90.000000	-90.000000	-210.765752	890.373457	-5.811837	22.474206	39.250479	45.000000	45.000000	19.710366	2147.663658	-256.833279	26.508383	-134.490148	1456.418567	-304.037058	18.101339	4.566316	-45.000000	4.340321	37.169468	-14.461366	-45.000000	-2415.418554	-771.597095	141.895314	-0.723391	-708.115441	38.045367	6.894697	-22.591741	
5.3700	-90.000000	90.000000	-90.000000	-209.045231	891.824915	-5.822018	22.622140	39.240078	45.000000	45.000000	19.431635	2147.634667	-256.892725	26.452117	-134.803294	1456.555982	-302.847022	18.062930	4.466528	-45.000000	4.048246	37.265435	-14.215268	-45.000000	-2415.345004	-771.773369	142.010735	-0.308076	-708.025220	38.604904	6.729052	-22.575636	
5.3800	-90.000000	90.000000	-90.000000	-207.255540	893.341337	-5.830109	22.772225	39.234241	45.000000	45.000000	19.150558	2147.605220	-256.957667	26.392362	-135.151022	1456.689020	-301.686863	18.020351	4.368007	-45.000000	3.748846	37.369259	-13.959157	-45.000000	-2415.265548	-771.961716	142.137898	0.179338	-707.940798	39.091747	6.573171	-22.555967	
5.3900	-90.000000	90.000000	-90.000000	-205.388952	894.901039	-5.829981	22.925026	39.232295	45.000000	45.000000	18.866126	2147.576527	-257.028775	26.328852	-135.537558	1456.817277	-300.556621	17.973847	4.270982	-45.000000	3.450374	37.481994	-13.701461	-45.000000	-2415.182234	-772.163826	142.276656	0.738925	-707.863133	39.497461	6.428666	-22.533043	
5.4000	-90.000000	90.000000	-90.000000	-203.438895	896.476305	-5.815182	23.081004	39.233342	45.000000	45.000000	18.578149	2147.547730	-257.105630	26.259829	-135.965518	1456.943326	-299.455484	17.923654	4.174725	-45.000000	3.160800	37.602802	-13.449619	-45.000000	-2415.092593	-772.379501	142.422811	1.367815	-707.792151	39.811296	6.299643	-22.509862	
5.4100	-90.000000	90.000000	-90.000000	-201.399762	898.034651	-5.779681	23.240028	39.238053	45.000000	45.000000	18.287036	2147.519331	-257.190004	26.185431	-136.435189	1457.065929	-298.377747	17.870219	4.080194	-45.000000	2.893650	37.735307	-13.213324	-45.000000	-2415.003549	-772.609207	142.579625	2.063971	-707.732167	40.021540	6.189398	-22.486613	
5.4200	-90.000000	90.000000	-90.000000	-199.266363	899.540478	-5.718641	23.401831	39.246812	45.000000	45.000000	17.993771	2147.489028	-257.281580	26.105214	-136.944933	1457.185849	-297.314388	17.813889	3.987683	-45.000000	2.660945	37.880710	-12.998285	-45.000000	-2414.917671	-772.851182	142.748467	2.821099	-707.685890	40.115616	6.103421	-22.466107	
5.4300	-90.000000	90.000000	-90.000000	-197.033928	900.956390	-5.629026	23.566135	39.259966	45.000000	45.000000	17.697797	2147.458574	-257.382755	26.021487	-137.493091	1457.302096	-296.253885	17.754494	3.897815	-45.000000	2.471721	38.041727	-12.814332	-45.000000	-2414.840716	-773.105634	142.930705	3.632650	-707.657817	40.080425	6.044634	-22.447819	
